HIERARCHY
ROOT pelvis
{
  OFFSET 0 100 0
  CHANNELS 6 Xposition Yposition Zposition Zrotation Xrotation Yrotation
  JOINT pelvis_right_femur
  {
    OFFSET -10.78128 -3.44521 -0.5502486
    CHANNELS 3 Zrotation Xrotation Yrotation
    JOINT right_femur_tibia
    {
      OFFSET -0.8047443 -44.0398 -0.1307829
      CHANNELS 3 Zrotation Xrotation Yrotation
      JOINT right_tibia_foot
      {
        OFFSET 3.006224 -47.83518 -5
        CHANNELS 3 Zrotation Xrotation Yrotation
        End Site
        {
          OFFSET 0 -5 15
        }
      }
    }
  }
  JOINT pelvis_left_femur
  {
    OFFSET 10.78128 -3.44521 -0.5502486
    CHANNELS 3 Zrotation Xrotation Yrotation
    JOINT left_femur_tibia
    {
      OFFSET 0.8047443 -44.0398 -0.1307829
      CHANNELS 3 Zrotation Xrotation Yrotation
      JOINT left_tibia_foot
      {
        OFFSET -4.370144 -48.10324 -4.275266
        CHANNELS 3 Zrotation Xrotation Yrotation
        End Site
        {
          OFFSET 0 -5 15
        }
      }
    }
  }
  JOINT pelvis_spine1
  {
    OFFSET 0 6.468898 -3.129235
    CHANNELS 3 Zrotation Xrotation Yrotation
    JOINT spine1
    {
      OFFSET 0 23.15396 4.99043
      CHANNELS 3 Zrotation Xrotation Yrotation
      JOINT spine2
      {
        OFFSET 0 20.79997 -5.064912
        CHANNELS 3 Zrotation Xrotation Yrotation
        JOINT neck
        {
          OFFSET 0 14.38658 9.616178
          CHANNELS 3 Zrotation Xrotation Yrotation
          End Site
          {
            OFFSET 0 20 0
          }
        }
      }
      JOINT right_manubrium
      {
        OFFSET -5.722621 16.35077 3.967754
        CHANNELS 3 Zrotation Xrotation Yrotation
        JOINT right_clavicle
        {
          OFFSET -13.16364 1.694482 -4.693211
          CHANNELS 3 Zrotation Xrotation Yrotation
          JOINT right_humerus
          {
            OFFSET -28.5034 -0.3100689 -2.792744
            CHANNELS 3 Zrotation Xrotation Yrotation
            JOINT right_radius
            {
              OFFSET -25.15693 0.02248979 -1.271978
              CHANNELS 3 Zrotation Xrotation Yrotation
              End Site
              {
                OFFSET -15 0 0
              }
            }
          }
        }
      }
      JOINT left_manubrium
      {
        OFFSET 5.722621 16.35077 3.967754
        CHANNELS 3 Zrotation Xrotation Yrotation
        JOINT left_clavicle
        {
          OFFSET 13.16364 1.694482 -4.693211
          CHANNELS 3 Zrotation Xrotation Yrotation
          JOINT left_humerus
          {
            OFFSET 29.39168 -1.063119 -2.237045
            CHANNELS 3 Zrotation Xrotation Yrotation
            JOINT left_radius
            {
              OFFSET 24.59957 -0.9528479 0.9047498
              CHANNELS 3 Zrotation Xrotation Yrotation
              End Site
              {
                OFFSET 15 -0 -0
              }
            }
          }
        }
      }
    }
  }
}
MOTION
Frames: 11
Frame Time: 0.0416666666667
-1414.054 107.0941 1989.972 -7.183587 -1.22395 -84.96211 0.5309888 -13.33331 -0.2159133 -0 37.61455 -0 -5.747517 9.122951 -3.086209 -4.92644 6.642403 -9.09644 -0 13.03559 -0 -1.495669 -16.34381 16.76011 -1.395389 1.853012 4.244172 -0.4140093 8.365501 -3.002675 2.865937 25.10574 4.891448 1.892471 -18.70379 8.006846 -1.128637 -17.34398 9.095435 87.69563 20.94459 -10.17143 -0 0 12.68699 -19.11329 6.748849 10.92476 5.077061 -15.77079 -2.546668 -91.98337 25.73464 17.13552 0 0 -6.39711 1.470805 9.847503 11.50468
-1419.499 106.5102 1990.782 -6.619872 -1.276563 -84.43741 0.5087129 -17.70339 -1.776251 -0 27.72742 -0 -5.834831 7.33068 -3.047801 -5.029388 9.978146 -9.075918 -0 11.96189 -0 -1.995474 -18.3672 15.86105 -1.337957 1.93367 3.895955 -0.3824955 8.219222 -3.077051 2.995479 25.30117 4.875835 1.842845 -18.53967 8.176628 -1.075561 -16.80668 9.002582 88.09842 21.22718 -10.67235 -0 0 11.66641 -18.89515 7.049004 10.54915 5.166777 -15.94165 -2.585446 -91.37176 25.90492 15.81128 0 0 -6.97895 1.631152 10.48755 11.19205
-1425.116 105.5295 1991.525 -5.803752 -1.381496 -84.05652 0.5436583 -21.04214 -3.147196 -0 18.78004 -0 -5.66063 6.228599 -2.803575 -5.255049 12.48271 -8.826906 -0 12.08667 -0 -2.018525 -19.71713 15.12806 -1.292035 1.990276 3.602758 -0.3821956 8.095195 -3.100402 3.107361 25.48239 4.878895 1.816018 -18.38509 8.335038 -1.0098 -16.36694 8.931628 88.38986 21.55959 -10.99099 -0 0 10.82372 -18.78871 7.355258 10.29684 5.251292 -16.07921 -2.619658 -90.87636 25.98011 14.72888 0 0 -7.397594 1.836065 11.13699 10.82759
-1431.008 104.3648 1992.213 -5.042024 -1.447187 -83.77549 0.8139066 -23.41573 -4.172661 -0 11.73669 -0 -5.525834 5.949136 -2.482223 -5.483421 14.33628 -8.341793 -0 13.66039 -0 -1.576745 -20.21145 14.653 -1.261453 2.027426 3.3728 -0.4139064 8.001963 -3.063571 3.193213 25.64756 4.908819 1.818819 -18.26398 8.477425 -0.9395252 -16.05307 8.884561 88.55603 21.90847 -11.09801 -0 0 10.1944 -18.80783 7.627382 10.19572 5.329315 -16.16854 -2.651728 -90.54792 25.95899 13.96977 0 0 -7.587041 2.081468 11.76448 10.42883
-1437.247 103.2389 1992.842 -4.575831 -1.407463 -83.57903 1.462111 -24.78198 -4.747702 -0 6.947597 -0 -5.660209 6.271458 -2.203953 -5.603502 15.63901 -7.680542 -0 16.94216 -0 -0.8682839 -19.76653 14.40238 -1.249072 2.04925 3.209571 -0.4756693 7.946054 -2.96462 3.246744 25.79456 4.970629 1.854636 -18.2004 8.600151 -0.8807298 -15.88732 8.859764 88.59989 22.23041 -10.98673 -0 0 9.797814 -18.95802 7.822169 10.25954 5.399352 -16.20421 -2.688076 -90.41641 25.84993 13.58672 0 0 -7.516244 2.360719 12.3356 10.01894
-1443.839 102.3829 1993.402 -4.54252 -1.210493 -83.49051 2.578553 -24.9777 -4.757196 -0 4.63477 -0 -6.22597 6.757414 -2.049526 -5.520028 16.25975 -6.970088 -0 22.15636 -0 -0.1021279 -18.32017 14.29912 -1.256385 2.057225 3.113155 -0.5649217 7.932051 -2.80516 3.263345 25.92217 5.068765 1.925303 -18.21824 8.702512 -0.8577093 -15.88799 8.852706 88.53833 22.48101 -10.663 -0 0 9.639769 -19.24234 7.899833 10.49238 5.459508 -16.19159 -2.739478 -90.49421 25.66195 13.61102 0 0 -7.183885 2.67561 12.82405 9.612769
-1450.692 102.0018 1993.886 -4.968248 -0.8527148 -83.56962 4.081132 -23.80414 -4.175229 -0 4.759666 -0 -7.284755 6.901341 -2.053559 -5.176213 15.8478 -6.354394 -0 29.2321 -0 0.5844592 -15.91889 14.25052 -1.28293 2.047564 3.078801 -0.6788822 7.963789 -2.590799 3.239761 26.03054 5.208933 2.03251 -18.33784 8.788102 -0.8991964 -16.06657 8.858194 88.40224 22.6279 -10.14627 -0 0 9.708542 -19.66369 7.836562 10.88798 5.508587 -16.1508 -2.82235 -90.77122 25.39369 14.04464 0 0 -6.62397 3.049239 13.22541 9.196109
-1457.615 102.202 1994.3 -5.778711 -0.4399653 -83.88807 5.620219 -21.1716 -3.205281 -0 6.604585 -0 -8.720776 6.389506 -2.215004 -4.60063 14.04975 -5.898628 -0 37.50617 -0 1.146528 -12.88066 14.19078 -1.324343 2.008704 3.092249 -0.8110039 8.046781 -2.340997 3.174835 26.11894 5.395394 2.175847 -18.56838 8.863769 -1.031597 -16.41677 8.873727 88.24734 22.66166 -9.496881 -0 0 9.958751 -20.21598 7.641728 11.41473 5.547914 -16.12706 -2.960982 -91.1927 25.02731 14.82404 0 0 -5.940064 3.532841 13.56636 8.707812
-1464.392 102.9297 1994.653 -6.876961 -0.1752174 -84.48693 6.744512 -17.18446 -2.199088 -0 8.852725 -0 -10.24679 5.287569 -2.525004 -3.894253 10.80188 -5.558782 -0 45.70447 -0 1.598158 -9.807944 14.19849 -1.369277 1.921298 3.128384 -0.9435793 8.193855 -2.104484 3.069249 26.18005 5.624053 2.347747 -18.90636 8.933679 -1.274513 -16.90761 8.904334 88.16949 22.58843 -8.857326 -0 0 10.2978 -20.86683 7.362698 11.99479 5.581012 -16.20018 -3.188145 -91.64062 24.53365 15.79101 0 0 -5.34464 4.194961 13.89284 8.044849
-1470.85 103.978 1994.938 -8.208041 -0.2045188 -85.34063 7.239013 -12.1165 -1.396542 -0 10.41466 -0 -11.59856 3.826597 -2.955415 -3.121015 6.367202 -5.280858 -0 52.19928 -0 1.96663 -7.326596 14.5251 -1.397346 1.7611 3.160512 -1.041462 8.433012 -1.96601 2.921585 26.19333 5.877706 2.530766 -19.34855 8.990227 -1.640113 -17.49512 8.968381 88.30042 22.4062 -8.461536 -0 0 10.60113 -21.54774 7.068786 12.50125 5.608942 -16.47907 -3.539319 -91.95407 23.87948 16.72598 0 0 -5.143969 5.101453 14.2412 7.08432
-1476.893 105.0479 1995.15 -9.682199 -0.4611197 -86.35478 7.242466 -6.4015 -0.8460683 -0 11.0437 -0 -12.70699 2.02419 -3.416523 -2.232522 1.156465 -5.037663 -0 55.29498 -0 2.276744 -5.761024 15.35156 -1.378297 1.502193 3.17756 -1.052572 8.810236 -2.03789 2.724159 26.122 6.124386 2.699064 -19.90378 9.006473 -2.132198 -18.1444 9.10023 88.77506 22.09055 -8.590792 -0 0 10.75756 -22.1589 6.835856 12.77452 5.622346 -17.08043 -4.039552 -91.9815 23.02307 17.43026 0 0 -5.656833 6.30494 14.62025 5.695595
